<svg width="960" height="960" xmlns="http://www.w3.org/2000/svg">
 <g id="Layer_1">
  <title>Layer 1</title>
  <g>
   <path fill="#ffffff" d="m480,240q-17,0 -28.5,-11.5t-11.5,-28.5l0,-80q0,-17 11.5,-28.5t28.5,-11.5q17,0 28.5,11.5t11.5,28.5l0,80q0,17 -11.5,28.5t-28.5,11.5zm198,82q-11,-11 -11,-28t11,-28l56,-57q12,-12 28.5,-12t28.5,12q11,11 11,28t-11,28l-57,57q-11,11 -28,11t-28,-11zm122,238q-17,0 -28.5,-11.5t-11.5,-28.5q0,-17 11.5,-28.5t28.5,-11.5l80,0q17,0 28.5,11.5t11.5,28.5q0,17 -11.5,28.5t-28.5,11.5l-80,0zm-66,271l-56,-57q-11,-11 -11,-28t11,-28q11,-11 28,-11t28,11l57,56q12,12 12,28.5t-12,28.5q-12,12 -28.5,12t-28.5,-12zm-508,-509l-57,-57q-11,-11 -11,-28t11,-28q12,-12 28.5,-12t28.5,12l56,57q11,11 11,28t-11,28q-11,11 -28,11t-28,-11zm14,478l180,0q25,0 42.5,-17.5t17.5,-42.5q0,-25 -17,-42.5t-42,-17.5l-51,0l-20,-48q-14,-33 -44,-52.5t-66,-19.5q-50,0 -85,35t-35,85q0,50 35,85t85,35zm0,80q-83,0 -141.5,-58.5t-58.5,-141.5q0,-83 58.5,-141.5t141.5,-58.5q60,0 109.5,32.5t73.5,87.5q58,0 97.5,43t39.5,103q-2,57 -42.5,95.5t-97.5,38.5l-180,0zm320,-134q-5,-20 -10,-39t-10,-39q45,-19 72.5,-59t27.5,-89q0,-66 -47,-113t-113,-47q-60,0 -105,39t-53,99q-20,-5 -41,-9t-41,-9q14,-88 82.5,-144t157.5,-56q100,0 170,70t70,170q0,77 -44,138.5t-116,87.5zm-79,-226z"/>
  </g>
 </g>

</svg>